<svg version="1.2" xmlns="http://www.w3.org/2000/svg" viewBox="0 0 400 400" width="512" height="512">
	<style>
		.s0 { fill: #13121d } 
		.s1 { opacity: .7;fill: #bd93f9 } 
	</style>
	<path id="Background" class="s0" d="m0 0h400v400h-400z"/>
	<g id="ghost">
		<path class="s1" d="m277.77 192.97c0 44.98 18.4 56.74 18.4 77.69 0 11.76-25.04 3.07-35.26 9.2-9.72 5.11-5.63 13.29-18.92 18.4-10.22 4.09-22.99-13.29-36.28-13.29-11.25 0-31.18 14.82-40.38 10.22-9.2-4.6-8.69-20.44-23-21.46-10.73-1.54-38.33 13.8-38.33 2.04 0-14.82 16.87-30.66 16.87-82.8 0-50.08 35.26-90.97 78.7-90.97 42.94 0 78.2 40.89 78.2 90.97zm-104.26-45.99c-10.73 0-18.91 9.71-18.91 21.97 0 11.76 8.18 21.98 18.91 21.98 8.18 0 14.82-6.13 17.89-14.31 2.55 8.18 9.71 14.31 17.88 14.31 10.23 0 18.92-10.22 18.92-21.98 0-12.26-8.69-21.97-18.92-21.97-8.17 0-15.33 5.62-17.88 13.8-3.07-8.18-9.71-13.8-17.89-13.8zm16.86 55.7c-20.95 0-8.68 28.12 0 28.12 10.74 0 21.47-28.12 0-28.12z"/>
	</g>
</svg>