<?xml version="1.0" standalone="no"?>
<!DOCTYPE svg PUBLIC "-//W3C//DTD SVG 20010904//EN"
 "http://www.w3.org/TR/2001/REC-SVG-20010904/DTD/svg10.dtd">
<svg version="1.0" xmlns="http://www.w3.org/2000/svg"
 width="134.000000pt" height="134.000000pt" viewBox="0 0 134.000000 134.000000"
 preserveAspectRatio="xMidYMid meet">
<metadata>
Created by potrace 1.14, written by Peter Selinger 2001-2017
</metadata>
<g transform="translate(0.000000,134.000000) scale(0.100000,-0.100000)"
fill="#000000" stroke="none">
<path d="M268 1332 l-38 -3 0 -574 0 -573 83 1 82 2 1 49 c1 31 -3 55 -12 63
-19 19 -18 48 2 67 18 19 28 20 55 6 23 -13 25 -42 5 -73 -8 -12 -15 -38 -14
-57 0 -19 0 -49 -1 -65 l-1 -31 -97 1 -98 0 0 -69 0 -69 145 -2 c80 0 150 1
155 2 7 2 11 88 10 253 l0 250 60 1 c33 0 129 0 213 0 l152 0 0 158 0 157
-132 -1 c-73 -1 -138 -2 -144 -3 -17 -3 -15 -148 2 -163 31 -25 10 -79 -31
-79 -43 0 -60 47 -29 81 26 29 8 39 -75 39 l-78 0 -43 -42 c-24 -24 -44 -53
-46 -65 -3 -30 -10 -40 -33 -46 -25 -6 -61 19 -61 43 0 21 35 50 60 50 9 0 36
21 60 47 l45 48 85 1 c47 1 88 2 91 3 4 1 6 20 5 44 l-1 42 -41 1 c-23 1 -45
4 -50 7 -5 3 -9 45 -9 94 l0 88 136 3 135 3 -2 -41 c-1 -22 1 -40 5 -41 46 -7
294 -2 299 6 4 6 7 72 8 148 l0 137 -68 0 -68 0 0 -55 c0 -34 6 -65 16 -80 15
-23 15 -27 0 -51 -20 -30 -52 -29 -72 1 -12 18 -11 26 6 58 11 20 19 37 18 38
-2 1 -50 2 -108 3 -87 2 -111 -1 -137 -16 -24 -15 -37 -17 -51 -9 -28 15 -35
40 -17 67 18 27 47 31 65 9 10 -12 37 -15 126 -15 l113 0 3 42 3 42 85 0 85 1
0 35 0 34 -360 1 c-198 0 -365 -1 -372 -3 -8 -2 -12 -51 -12 -163 -1 -131 1
-163 14 -175 36 -37 -4 -93 -51 -72 -27 13 -31 43 -11 73 10 15 13 63 13 179
-1 178 6 165 -78 158z"/>
</g>
</svg>
